Coordinates
version=1
nRows=17
nColumns=38
inDegrees=no

Units are S.I. units (second, meters, Newtons, ...)
If the header above contains a line with 'inDegrees', this indicates whether rotational values are in degrees (yes) or radians (no).

endheader
time	pelvis_tilt	pelvis_list	pelvis_rotation	pelvis_tx	pelvis_ty	pelvis_tz	hip_flexion_r	hip_adduction_r	hip_rotation_r	knee_angle_r	ankle_angle_r	subtalar_angle_r	mtp_angle_r	hip_flexion_l	hip_adduction_l	hip_rotation_l	knee_angle_l	ankle_angle_l	subtalar_angle_l	mtp_angle_l	lumbar_extension	lumbar_bending	lumbar_rotation	arm_flex_r	arm_add_r	arm_rot_r	elbow_flex_r	pro_sup_r	wrist_flex_r	wrist_dev_r	arm_flex_l	arm_add_l	arm_rot_l	elbow_flex_l	pro_sup_l	wrist_flex_l	wrist_dev_l
5	2.69617	1.36218	-0.998705	0.639195	1.9088	0.953644	-0.030878	0.0277172	-0.0461727	0.760774	-0.256109	0	0	-0.0274569	-0.0727928	-0.0596489	0.414902	-0.233626	0	0	-0.284673	0.227738	-0.0480051	0.351216	-0.437959	0.0359243	1.63318	1.5708	0	0	0.525208	-0.346968	0.437183	1.45189	1.5708	0	0
5.01	2.69127	1.36267	-0.993383	0.638858	1.91104	0.953809	-0.0288803	0.0277654	-0.051711	0.732011	-0.253438	0	0	-0.0309459	-0.0729132	-0.0568953	0.411131	-0.231923	0	0	-0.284858	0.229009	-0.0469438	0.352447	-0.438507	0.034244	1.63204	1.5708	0	0	0.528499	-0.343711	0.438139	1.44758	1.5708	0	0
5.02	2.68582	1.36338	-0.987832	0.638544	1.91317	0.954022	-0.0270807	0.0283587	-0.0552489	0.702509	-0.252622	0	0	-0.0341613	-0.0729579	-0.0542461	0.407021	-0.231047	0	0	-0.284572	0.229934	-0.0467203	0.356684	-0.444752	0.0405384	1.62969	1.5708	0	0	0.530962	-0.340874	0.438001	1.44312	1.5708	0	0
5.03	2.68306	1.36287	-0.985168	0.638309	1.91516	0.954202	-0.02641	0.0284939	-0.059139	0.675597	-0.251414	0	0	-0.0384494	-0.0734316	-0.0527008	0.403661	-0.230012	0	0	-0.283936	0.231605	-0.0508741	0.365753	-0.442718	0.0485173	1.62048	1.5708	0	0	0.530426	-0.340949	0.433754	1.4393	1.5708	0	0
5.04	2.67541	1.36402	-0.97778	0.638149	1.91718	0.954275	-0.0239568	0.0290468	-0.060558	0.649714	-0.249934	0	0	-0.0403646	-0.0739694	-0.0514397	0.401125	-0.229255	0	0	-0.284652	0.233101	-0.0475062	0.363824	-0.437702	0.0386954	1.62168	1.5708	0	0	0.534316	-0.337369	0.434755	1.43607	1.5708	0	0
5.05	2.66742	1.3652	-0.970036	0.638073	1.91915	0.954408	-0.0226852	0.0297471	-0.0595104	0.621261	-0.249543	0	0	-0.0424387	-0.0745927	-0.0493694	0.397858	-0.228284	0	0	-0.285416	0.234075	-0.0433306	0.362051	-0.43867	0.0332274	1.62435	1.5708	0	0	0.539095	-0.333387	0.437162	1.43207	1.5708	0	0
5.06	2.66334	1.36592	-0.96664	0.638125	1.92103	0.954646	-0.0225841	0.0301446	-0.057728	0.593934	-0.250081	0	0	-0.046466	-0.0749987	-0.0517302	0.385987	-0.227937	0	0	-0.287459	0.234349	-0.0386146	0.360332	-0.439315	0.0275388	1.62725	1.5708	0	0	0.544202	-0.329884	0.439793	1.42852	1.5708	0	0
5.07	2.65724	1.36631	-0.961273	0.638228	1.92276	0.954778	-0.0222765	0.0311123	-0.0559288	0.568748	-0.250417	0	0	-0.0489841	-0.0758532	-0.0501818	0.383221	-0.227752	0	0	-0.288543	0.235438	-0.0363016	0.362073	-0.439112	0.0261421	1.62689	1.5708	0	0	0.547839	-0.327993	0.440508	1.42523	1.5708	0	0
5.08	2.65161	1.36641	-0.95658	0.638384	1.92441	0.954882	-0.0220296	0.032123	-0.0540801	0.545168	-0.250353	0	0	-0.0513644	-0.0768261	-0.0489296	0.381345	-0.226839	0	0	-0.288312	0.236818	-0.0377233	0.368753	-0.437378	0.0312504	1.62119	1.5708	0	0	0.548512	-0.328222	0.437862	1.42234	1.5708	0	0
5.09	2.64609	1.3666	-0.952002	0.638608	1.92598	0.95498	-0.0216864	0.0333394	-0.0520622	0.523059	-0.249165	0	0	-0.0534135	-0.0777895	-0.0474923	0.379779	-0.225446	0	0	-0.288135	0.238113	-0.0392605	0.375664	-0.435272	0.0365196	1.61524	1.5708	0	0	0.54892	-0.328634	0.434777	1.41971	1.5708	0	0
5.1	2.63955	1.36742	-0.946465	0.638926	1.92752	0.955066	-0.0208083	0.034459	-0.05001	0.502124	-0.246336	0	0	-0.0547566	-0.078733	-0.0464207	0.377892	-0.224168	0	0	-0.286918	0.238753	-0.0416526	0.384591	-0.43871	0.0491798	1.60861	1.5708	0	0	0.548474	-0.329637	0.431013	1.41726	1.5708	0	0
5.11	2.63392	1.36772	-0.941875	0.639262	1.92897	0.955145	-0.0200883	0.0354271	-0.0482359	0.483393	-0.243688	0	0	-0.0565039	-0.0800001	-0.0466085	0.376238	-0.222997	0	0	-0.286699	0.239947	-0.043267	0.391351	-0.436132	0.0546274	1.60265	1.5708	0	0	0.54849	-0.330616	0.427681	1.41501	1.5708	0	0
5.12	2.62501	1.36893	-0.933703	0.639673	1.9305	0.955182	-0.0183211	0.0364186	-0.0470194	0.466307	-0.242568	0	0	-0.0570553	-0.0814432	-0.0472161	0.374386	-0.222727	0	0	-0.287109	0.240718	-0.0403294	0.391471	-0.435815	0.0523807	1.60384	1.5708	0	0	0.551347	-0.32908	0.428145	1.41275	1.5708	0	0
5.13	2.61753	1.36936	-0.926873	0.640101	1.93195	0.955236	-0.0168415	0.0374801	-0.0466778	0.45255	-0.24231	0	0	-0.0582697	-0.0831551	-0.0475956	0.373183	-0.222096	0	0	-0.288737	0.242049	-0.0367159	0.38977	-0.430422	0.0440173	1.60565	1.5708	0	0	0.554896	-0.327541	0.42919	1.41078	1.5708	0	0
5.14	2.6102	1.36941	-0.91999	0.640608	1.93344	0.955398	-0.0178426	0.0392415	-0.0447538	0.434724	-0.243322	0	0	-0.0601377	-0.0852128	-0.0476358	0.371217	-0.221061	0	0	-0.290654	0.24296	-0.0318427	0.387164	-0.430688	0.0382592	1.60947	1.5708	0	0	0.559859	-0.325167	0.432313	1.40754	1.5708	0	0
5.15	2.60553	1.36915	-0.915685	0.641151	1.93494	0.955542	-0.0191461	0.0406727	-0.0434175	0.420039	-0.244912	0	0	-0.0624822	-0.0870138	-0.0477737	0.369642	-0.220159	0	0	-0.292208	0.243688	-0.0288979	0.386871	-0.430373	0.036083	1.61078	1.5708	0	0	0.56339	-0.324154	0.434069	1.40472	1.5708	0	0
5.16	2.59946	1.3621	-0.909277	0.64188	1.93635	0.956545	-0.032191	0.0365396	-0.11791	0.386721	-0.265207	0	0	-0.0709386	-0.0944659	-0.0491425	0.366044	-0.221004	0	0	-0.299503	0.249088	-0.0267847	0.389692	-0.42941	0.0369691	1.60942	1.5708	0	0	0.566605	-0.32399	0.434532	1.40154	1.5708	0	0
